<?xml version="1.0" standalone="no"?>
<!DOCTYPE svg PUBLIC "-//W3C//DTD SVG 20010904//EN"
 "http://www.w3.org/TR/2001/REC-SVG-20010904/DTD/svg10.dtd">
<svg version="1.0" xmlns="http://www.w3.org/2000/svg"
 width="512.000000pt" height="512.000000pt" viewBox="0 0 512.000000 512.000000"
 preserveAspectRatio="xMidYMid meet">
<metadata>
Created by potrace 1.14, written by Peter Selinger 2001-2017
</metadata>
<g transform="translate(0.000000,512.000000) scale(0.100000,-0.100000)"
fill="#000000" stroke="none">
<path d="M1975 3900 c-47 -19 -67 -55 -76 -142 -5 -46 -14 -101 -20 -123 -38
-140 -156 -283 -288 -350 -122 -61 -157 -65 -609 -65 l-403 0 -206 120 c-178
103 -213 120 -250 120 -35 0 -50 -6 -81 -34 l-37 -34 -3 -1046 c-3 -1157 -7
-1085 61 -1126 32 -20 70 -20 2500 -20 2170 0 2471 2 2497 15 61 32 60 25 60
425 0 331 -2 373 -20 449 -68 281 -282 534 -548 646 -154 65 -174 67 -562 75
-321 7 -362 10 -428 29 -87 26 -177 69 -243 119 l-48 35 44 49 c25 28 47 64
50 82 14 71 -49 146 -123 146 -46 0 -70 -14 -123 -72 l-47 -51 -51 37 c-28 21
-51 42 -51 46 0 5 25 36 57 70 48 53 57 67 60 108 6 60 -26 111 -79 129 -57
19 -94 2 -173 -77 -38 -38 -73 -70 -77 -70 -5 0 -31 17 -58 37 l-49 36 62 69
c90 101 99 116 94 167 -7 63 -49 102 -116 109 l-51 5 -98 -96 -97 -95 -170
129 c-93 72 -182 137 -197 145 -30 15 -72 17 -103 4z m233 -533 c-60 -70 -60
-70 -56 -124 5 -61 31 -96 85 -113 55 -19 92 -3 170 72 48 47 76 67 85 62 7
-4 30 -20 51 -37 l37 -29 -69 -75 c-39 -42 -73 -89 -76 -105 -11 -50 3 -94 41
-127 29 -26 43 -31 87 -31 l52 0 88 91 87 90 50 -39 51 -40 -89 -95 c-65 -69
-91 -104 -96 -130 -12 -62 28 -127 91 -147 62 -21 90 -6 199 108 l100 105 81
-57 c101 -70 222 -127 333 -157 74 -20 118 -24 332 -28 l247 -6 -25 -33 c-14
-17 -47 -44 -72 -60 l-47 -27 -495 -5 -495 -5 -74 -27 c-169 -62 -302 -193
-356 -351 l-19 -57 -401 0 c-220 0 -727 -3 -1127 -7 l-728 -6 0 293 0 293 143
-5 c173 -6 256 -30 388 -114 72 -45 94 -54 131 -54 111 0 165 131 87 210 -43
43 -164 114 -250 149 -104 41 -204 60 -358 67 l-131 7 0 145 0 144 38 -22 c20
-13 76 -45 123 -72 l87 -49 493 3 c487 3 495 4 564 27 236 79 406 226 508 438
19 40 37 82 40 93 5 20 11 18 80 -36 l75 -58 -60 -69z m2305 -894 c98 -51 229
-182 279 -278 32 -63 58 -132 71 -192 l5 -23 -1050 0 -1049 0 18 31 c28 49 90
106 141 131 47 23 50 23 537 28 472 6 492 7 556 28 135 45 241 138 305 268
l36 72 40 -14 c21 -7 72 -30 111 -51z m367 -883 l0 -140 -2315 0 -2315 0 0
140 0 140 2315 0 2315 0 0 -140z"/>
<path d="M1055 2327 c-82 -82 -40 -205 72 -214 82 -7 136 41 136 119 0 78 -52
128 -134 128 -33 0 -47 -6 -74 -33z"/>
</g>
</svg>
